<svg width="140" height="140" viewBox="0 0 140 140" fill="none" xmlns="http://www.w3.org/2000/svg">
<path d="M70 140C108.66 140 140 108.66 140 70C140 31.3401 108.66 0 70 0C31.3401 0 0 31.3401 0 70C0 108.66 31.3401 140 70 140Z" fill="black" fill-opacity="0.05"/>
<path d="M70.4375 126.875C101.849 126.875 127.312 101.411 127.312 70C127.312 38.5888 101.849 13.125 70.4375 13.125C39.0263 13.125 13.5625 38.5888 13.5625 70C13.5625 101.411 39.0263 126.875 70.4375 126.875Z" fill="black" fill-opacity="0.1"/>
<path d="M106.095 51.3286C110.323 59.4022 111.685 68.6715 109.96 77.6203C108.234 86.5689 103.523 94.6672 96.5965 100.59C89.6709 106.513 80.9393 109.911 71.831 110.226C62.7231 110.541 53.7775 107.756 46.458 102.327C39.1384 96.8976 33.8781 89.1451 31.5375 80.337C29.197 71.5292 29.9149 62.1878 33.5736 53.841C37.2324 45.4942 43.6154 38.6361 51.6786 34.3887C59.7419 30.1413 69.0078 28.756 77.9608 30.4594" stroke="#9292CB" stroke-width="1.5" stroke-linecap="round"/>
<path d="M94.0625 51.8438C101.432 51.8438 107.406 45.8695 107.406 38.5C107.406 31.1305 101.432 25.1562 94.0625 25.1562C86.693 25.1562 80.7188 31.1305 80.7188 38.5C80.7188 45.8695 86.693 51.8438 94.0625 51.8438Z" stroke="#9292CB" stroke-width="1.5"/>
<path d="M94.0625 32.375V44.625" stroke="#6B6B6B" stroke-width="1.5" stroke-linecap="round"/>
<path d="M100.188 38.5H87.9375" stroke="#9292CB" stroke-width="1.5" stroke-linecap="round"/>
<path d="M51.5127 56.875H83.409" stroke="#9292CB" stroke-width="1.5" stroke-linecap="round"/>
<path d="M47.2242 63.3004L47.1377 68.4741V75.8353L47.01 81.6144C46.9015 86.5214 50.8497 90.5581 55.7578 90.5581H85.2677C89.333 90.5581 92.6291 87.262 92.6291 83.1965M89.0276 58.4216C89.088 55.1692 86.4682 52.5 83.215 52.5H67.7002H51.4471C49.0671 52.5 47.1377 54.4294 47.1377 56.8095C47.1377 59.199 49.0819 61.1323 51.4714 61.1189L52.5394 61.1129H58.2664H69.7205H85.2677C89.333 61.1129 92.6291 64.4086 92.6291 68.4741V71.3125" stroke="#9292CB" stroke-width="1.5" stroke-linecap="round"/>
<path d="M82.1377 76.125C82.1377 73.7088 84.0959 71.75 86.5127 71.75H95.2627C96.2287 71.75 97.0127 72.5335 97.0127 73.5V78.75C97.0127 79.7165 96.2287 80.5 95.2627 80.5H86.5127C84.0959 80.5 82.1377 78.5412 82.1377 76.125Z" stroke="#9292CB" stroke-width="1.5"/>
<path d="M86.8933 77.8648C87.857 77.8648 88.6382 77.0836 88.6382 76.1199C88.6382 75.1562 87.857 74.375 86.8933 74.375C85.9296 74.375 85.1484 75.1562 85.1484 76.1199C85.1484 77.0836 85.9296 77.8648 86.8933 77.8648Z" stroke="#9292CB" stroke-width="1.5"/>
</svg>
