<svg width="140" height="163" fill="none" xmlns="http://www.w3.org/2000/svg">
  <path d="M140 53.75v75.364L108.887 98V53.75c0-12.502-10.135-22.637-22.637-22.637a22.573 22.573 0 0 0-16.461 7.098L47.785 16.207C57.545 6.207 71.173 0 86.25 0 115.935 0 140 24.065 140 53.75ZM39.075 27.969l-.078.142L63.635 52.75l.01-.21-24.57-24.57Z" fill="#000"/>
  <path d="M0 32.953V16.626C0 6.413 12.347 1.299 19.568 8.52l120.43 120.431v16.327c0 10.212-12.347 15.326-19.568 8.105L0 32.953Z" fill="#000"/>
  <path d="M0 108.314V32.95l31.113 31.114v44.25c0 12.502 10.135 22.637 22.637 22.637 6.54 0 12.43-2.773 16.563-7.207L92.32 145.75c-9.768 10.062-23.44 16.314-38.57 16.314-29.685 0-53.75-24.065-53.75-53.75ZM101 133.958l.003-.005-24.638-24.638v.008L101 133.958Z" fill="#000"/>
</svg>